<svg xmlns="http://www.w3.org/2000/svg" viewBox="0 0 1200 630" width="1200" height="630" role="img" aria-labelledby="t d"><title id="t">Hệ thống thi trực tuyến chịu tải 35.000 người dùng</title><desc id="d">Luồng xử lý bài nộp bằng hàng đợi trong hệ thống thi trực tuyến</desc><defs><radialGradient id="g1" cx="85%" cy="0%" r="75%"><stop offset="0" stop-color="#4fd1c5" stop-opacity=".30"/><stop offset="1" stop-color="#4fd1c5" stop-opacity="0"/></radialGradient><radialGradient id="g2" cx="0%" cy="100%" r="70%"><stop offset="0" stop-color="#ffb86b" stop-opacity=".18"/><stop offset="1" stop-color="#ffb86b" stop-opacity="0"/></radialGradient><linearGradient id="lg" x1="0" y1="0" x2="1" y2="1"><stop offset="0" stop-color="#4fd1c5"/><stop offset="1" stop-color="#ffb86b"/></linearGradient></defs><rect width="1200" height="630" fill="#0b1620"/><rect width="1200" height="630" fill="url(#g1)"/><rect width="1200" height="630" fill="url(#g2)"/><circle cx="900" cy="315" r="250" fill="none" stroke="#4fd1c5" stroke-opacity="0.1" stroke-width="2"/><circle cx="900" cy="315" r="190" fill="none" stroke="#4fd1c5" stroke-opacity="0.16" stroke-width="2"/><circle cx="900" cy="315" r="130" fill="none" stroke="#4fd1c5" stroke-opacity="0.26" stroke-width="2"/><rect x="800" y="240" width="24" height="24" rx="6" fill="#4fd1c5" fill-opacity="0.9"/><rect x="800" y="274" width="24" height="24" rx="6" fill="#ffb86b" fill-opacity="0.9"/><rect x="800" y="308" width="24" height="24" rx="6" fill="#4fd1c5" fill-opacity="0.9"/><rect x="834" y="240" width="24" height="24" rx="6" fill="#ffb86b" fill-opacity="0.78"/><rect x="834" y="274" width="24" height="24" rx="6" fill="#4fd1c5" fill-opacity="0.78"/><rect x="834" y="308" width="24" height="24" rx="6" fill="#ffb86b" fill-opacity="0.78"/><rect x="868" y="240" width="24" height="24" rx="6" fill="#4fd1c5" fill-opacity="0.66"/><rect x="868" y="274" width="24" height="24" rx="6" fill="#ffb86b" fill-opacity="0.66"/><rect x="868" y="308" width="24" height="24" rx="6" fill="#4fd1c5" fill-opacity="0.66"/><rect x="902" y="240" width="24" height="24" rx="6" fill="#ffb86b" fill-opacity="0.54"/><rect x="902" y="274" width="24" height="24" rx="6" fill="#4fd1c5" fill-opacity="0.54"/><rect x="902" y="308" width="24" height="24" rx="6" fill="#ffb86b" fill-opacity="0.54"/><rect x="936" y="240" width="24" height="24" rx="6" fill="#4fd1c5" fill-opacity="0.42000000000000004"/><rect x="936" y="274" width="24" height="24" rx="6" fill="#ffb86b" fill-opacity="0.42000000000000004"/><rect x="936" y="308" width="24" height="24" rx="6" fill="#4fd1c5" fill-opacity="0.42000000000000004"/><rect x="70" y="86" width="385" height="40" rx="20" fill="#4fd1c5" fill-opacity=".14" stroke="#4fd1c5" stroke-opacity=".5"/><text x="90" y="113" font-family="Segoe UI, Inter, Helvetica, Arial, sans-serif" font-size="20" font-weight="600" fill="#4fd1c5">Hệ thống thi trực tuyến</text><text x="70" y="250" font-family="Segoe UI, Inter, Helvetica, Arial, sans-serif" font-size="54" font-weight="700" fill="#e6f1f2">Hệ thống thi trực tuyến</text><text x="70" y="316" font-family="Segoe UI, Inter, Helvetica, Arial, sans-serif" font-size="54" font-weight="700" fill="#e6f1f2">chịu tải 35.000 người dùng</text><rect x="70" y="362" width="120" height="6" rx="3" fill="url(#lg)"/><text x="70" y="540" font-family="Segoe UI, Inter, Helvetica, Arial, sans-serif" font-size="26" fill="#e6f1f2">Huỳnh Nhật Khang</text><text x="70" y="575" font-family="Segoe UI, Inter, Helvetica, Arial, sans-serif" font-size="20" fill="#8aa3ab">Senior Fullstack Developer</text></svg>